<svg xmlns="http://www.w3.org/2000/svg" width="24" height="24" viewBox="0 0 24 24" fill="#E3E3FA">
  <path d="M12.0012 12.347C14.5548 12.347 16.6422 10.2449 16.6422 7.67348C16.6422 5.10203 14.5548 3 12.0012 3C9.44767 3 7.36032 5.10203 7.36032 7.67348C7.36032 10.2449 9.44771 12.347 12.0012 12.347Z" fill="#E3E3FA"/>
  <path d="M19.9658 16.0816C19.8442 15.7755 19.6821 15.4898 19.4997 15.2245C18.5674 13.8367 17.1286 12.9184 15.5073 12.6939C15.3047 12.6735 15.0817 12.7143 14.9196 12.8367C14.0684 13.4694 13.0551 13.7959 12.0013 13.7959C10.9474 13.7959 9.93411 13.4694 9.08293 12.8367C8.92078 12.7143 8.69785 12.653 8.49521 12.6939C6.87392 12.9184 5.41478 13.8367 4.50281 15.2245C4.32042 15.4898 4.15828 15.7959 4.03671 16.0816C3.97592 16.2041 3.99617 16.347 4.05696 16.4694C4.2191 16.7551 4.42174 17.0409 4.60413 17.2857C4.88785 17.6735 5.19185 18.0204 5.53639 18.347C5.8201 18.6327 6.14435 18.898 6.46864 19.1633C8.06964 20.3674 9.99493 21 11.981 21C13.9671 21 15.8924 20.3673 17.4934 19.1633C17.8176 18.9184 18.1419 18.6327 18.4256 18.347C18.7499 18.0204 19.0741 17.6735 19.3579 17.2857C19.5605 17.0204 19.743 16.7551 19.9051 16.4694C20.0063 16.347 20.0266 16.2041 19.9658 16.0816Z" fill="#E3E3FA"/>
</svg>